<svg xmlns="http://www.w3.org/2000/svg" viewBox="56.11 242.12 387.78 185.44"><g id="freepik--Shadow--inject-95"><ellipse id="freepik--path--inject-95" cx="250" cy="416.24" rx="193.89" ry="11.32" style="fill:#f5f5f5"/></g><g id="freepik--Plant--inject-95"><path d="M101,380.92h0a.4.4,0,0,1-.35-.44c0-.07.06-.84.12-2.17.11-2,.27-6.15.21-11.72a1.91,1.91,0,0,0,0-.24c-.08-6.22-.41-12.34-1-18.21-.54-5.47-1.31-10.78-2.29-15.78a126.45,126.45,0,0,0-3.19-12.76.06.06,0,0,1,0,0h0c-.19-.62-.39-1.23-.59-1.85s-.34-1-.52-1.51c-.45-1.31-.87-2.56-1.23-3.72-.8-2.55-1.5-5.1-2.1-7.57-.36-1.49-.68-2.95-1-4.35a95.19,95.19,0,0,1-1.81-16.07c-.06-2.13,0-4.25.09-6.3a60.7,60.7,0,0,1,.69-6.45c0-.15,0-.29.07-.42l0-.2a.46.46,0,0,1,.11-.27.4.4,0,0,1,.56,0,.43.43,0,0,1,.11.39h0l0,.21c0,.14,0,.29-.07.44a58.83,58.83,0,0,0-.68,6.35c-.12,2-.15,4.14-.09,6.24a93.68,93.68,0,0,0,1.8,15.94c.26,1.39.58,2.84.94,4.31.59,2.46,1.29,5,2.09,7.53.35,1.15.76,2.39,1.22,3.69.18.51.35,1,.52,1.52s.4,1.24.59,1.86l0,0h0a126.24,126.24,0,0,1,3.21,12.85c1,5,1.76,10.37,2.3,15.87.59,5.88.92,12,1,18.26v.28c.06,5.57-.11,9.75-.21,11.74-.06,1.35-.11,2.16-.12,2.23A.41.41,0,0,1,101,380.92Z" style="fill:#407BFF"/><path d="M88.52,271.25v0l0,0a12.13,12.13,0,0,1,2.18-1.67,11.66,11.66,0,0,1,2.74-1.17" style="fill:#407BFF"/><path d="M88.52,271.64a.29.29,0,0,1-.16,0,.38.38,0,0,1-.2-.51.25.25,0,0,1,.08-.12.08.08,0,0,1,0,0h0a11.89,11.89,0,0,1,2.24-1.72A12.37,12.37,0,0,1,93.37,268a.39.39,0,0,1,.48.27.4.4,0,0,1-.27.49,11.17,11.17,0,0,0-2.66,1.14,12.25,12.25,0,0,0-2.1,1.6h0A.41.41,0,0,1,88.52,271.64Z" style="fill:#407BFF"/><path d="M87.74,278.59a.35.35,0,0,1-.25-.09l-2.65-2.2a.39.39,0,0,1,.5-.6L88,277.9a.39.39,0,0,1,0,.55A.38.38,0,0,1,87.74,278.59Z" style="fill:#407BFF"/><path d="M92.5,312.79a.42.42,0,0,1-.39-.41h0a10.76,10.76,0,0,1,2-4.89,10.31,10.31,0,0,1,1.59-1.72.39.39,0,0,1,.51.6A9.6,9.6,0,0,0,94.74,308a9.7,9.7,0,0,0-1.35,2.54,9.2,9.2,0,0,0-.5,1.92.37.37,0,0,1-.37.38Z" style="fill:#407BFF"/><path d="M94.85,319.86a.4.4,0,0,1-.36-.24,6.63,6.63,0,0,0-3.93-3.55.41.41,0,0,1-.25-.5.4.4,0,0,1,.5-.25,7.45,7.45,0,0,1,4.4,4,.39.39,0,0,1-.2.52A.29.29,0,0,1,94.85,319.86Z" style="fill:#407BFF"/><path d="M100.86,355c-.9-1-1.72-4.89-2.16-7-.11-.5-.19-.93-.27-1.24" style="fill:#407BFF"/><path d="M100.86,355.34a.39.39,0,0,1-.3-.13c-.89-1-1.63-4.22-2.25-7.16-.1-.5-.19-.92-.26-1.23a.4.4,0,0,1,.77-.18c.07.31.16.74.27,1.24.4,1.91,1.23,5.89,2.06,6.8a.4.4,0,0,1,0,.56A.37.37,0,0,1,100.86,355.34Z" style="fill:#407BFF"/><path d="M90.41,305.23a.39.39,0,0,1-.39-.36C90,304.23,89,289,97.35,283a.4.4,0,0,1,.55.08.39.39,0,0,1-.09.55c-8,5.82-7,21.07-7,21.22a.39.39,0,0,1-.37.42Z" style="fill:#407BFF"/><path d="M91.11,338.28c-1,3.68,7.16,10.25,7.16,10.25s10.3-1.75,11.26-5.43-1.92-9.5-7-10.83S92.07,334.6,91.11,338.28Z" style="fill:#407BFF"/><path d="M80.5,294.61c1.16,3.81,8.69,6.23,8.69,6.23s4.9-6.21,3.74-10-5.45-7.88-8.88-6.83S79.34,290.8,80.5,294.61Z" style="fill:#407BFF"/><path d="M100.57,306.1a10.1,10.1,0,0,1-3.1,1.94,3.37,3.37,0,0,1-3.43-.65c-1.05-1.11-.86-2.89-.29-4.3,1.12-2.8,5.5-7.64,9.08-6.47C108,298.33,102.76,304.32,100.57,306.1Z" style="fill:#407BFF"/><path d="M90.47,313.54c.7.79,1.46,1.81,1.13,2.82a2.12,2.12,0,0,1-2.29,1.25,6.34,6.34,0,0,1-2.57-1.12c-1.84-1.17-5.64-3.62-3.4-6.17S89,311.86,90.47,313.54Z" style="fill:#407BFF"/><path d="M104,278.08a1.85,1.85,0,0,1,1.74,1.29c.19.88-.51,1.7-1.2,2.28-1.73,1.45-6.92,5.39-8.27,1.87C94.94,280.19,101.58,277.93,104,278.08Z" style="fill:#407BFF"/><path d="M93.57,266.76c1.11.05,2.19-.39,3.3-.37s2.38.86,2.18,1.95-1.41,1.4-2.43,1.51a20.43,20.43,0,0,1-5.24-.13,1.65,1.65,0,0,1-1.08-.49c-.48-.64.19-1.56,1-1.83a10.38,10.38,0,0,0,2.29-.65Z" style="fill:#407BFF"/><path d="M83.1,274.83c-1.1.08-2.2-.34-3.31-.3s-2.36.91-2.14,2,1.45,1.37,2.47,1.46a19.91,19.91,0,0,0,5.23-.25,1.62,1.62,0,0,0,1.08-.51c.46-.65-.23-1.55-1-1.8a11,11,0,0,1-2.31-.6Z" style="fill:#407BFF"/><path d="M88.21,272.72h0a.4.4,0,0,1-.36-.42c.15-2.16-.08-4.23-.49-4.35a.4.4,0,1,1,.22-.76c1.25.36,1.15,3.73,1,5.16A.39.39,0,0,1,88.21,272.72Z" style="fill:#407BFF"/><path d="M88.94,267.65a9.51,9.51,0,0,0-2.9-3.92c-1.37-.91-3.51-.89-4.42.48-1,1.54.16,3.75,1.86,4.47s3.63.4,5.44.06c0-.27,0-.54,0-.81Z" style="fill:#407BFF"/><path d="M102.23,394.2h-.07a.4.4,0,0,1-.32-.46c2.64-14.1,10.66-20.25,10.75-20.31a.39.39,0,1,1,.47.63c-.08.06-7.86,6.05-10.44,19.82A.4.4,0,0,1,102.23,394.2Z" style="fill:#407BFF"/><path d="M110.52,376.36a.39.39,0,0,1-.14-.76,8.72,8.72,0,0,1,4.15-.15.4.4,0,0,1-.13.78,8,8,0,0,0-3.74.11A.34.34,0,0,1,110.52,376.36Z" style="fill:#407BFF"/><path d="M108.74,378.57a.39.39,0,0,1-.39-.38,17.17,17.17,0,0,1,2.7-9.74.39.39,0,0,1,.55-.1.4.4,0,0,1,.1.55,16.64,16.64,0,0,0-2.56,9.25.4.4,0,0,1-.38.42Z" style="fill:#407BFF"/><path d="M105.92,383.18a.39.39,0,0,1-.27-.11.4.4,0,0,1,0-.56,5.56,5.56,0,0,1,5.45-1.33.4.4,0,0,1,.26.49.39.39,0,0,1-.49.26,4.86,4.86,0,0,0-4.66,1.13A.38.38,0,0,1,105.92,383.18Z" style="fill:#407BFF"/><path d="M104.48,386.37a.4.4,0,0,1-.36-.22,13.1,13.1,0,0,1-.84-6.68.4.4,0,0,1,.79.1,12.51,12.51,0,0,0,.76,6.24.39.39,0,0,1-.35.56Z" style="fill:#407BFF"/><path d="M103,389.56c0,.06-.29.36.84.44,2.78.18,7.68.12,9.46-2.24,2.53-3.36-3.53-3.2-3-5.08s7.1-.17,8.3-2.84-3.54-2.26-3.36-3.64,5.21.54,6.77-2.29-2.75-1.4-2.08-2.57,6-6,3.78-7.13-7.31,3.87-9,4.38-2.24-4.56-4.44-2.93-.5,9.32-3.09,10.2c-1.94.66-1-2.05-3.36-2C100.59,373.91,99.83,384.6,103,389.56Z" style="fill:#407BFF"/><g style="opacity:0.30000000000000004"><path d="M103,389.56c0,.06-.29.36.84.44,2.78.18,7.68.12,9.46-2.24,2.53-3.36-3.53-3.2-3-5.08s7.1-.17,8.3-2.84-3.54-2.26-3.36-3.64,5.21.54,6.77-2.29-2.75-1.4-2.08-2.57,6-6,3.78-7.13-7.31,3.87-9,4.38-2.24-4.56-4.44-2.93-.5,9.32-3.09,10.2c-1.94.66-1-2.05-3.36-2C100.59,373.91,99.83,384.6,103,389.56Z" style="fill:#fff"/></g><path d="M101.93,394.55a.39.39,0,0,1-.38-.3,43.1,43.1,0,0,0-11.26-19.17.4.4,0,1,1,.53-.59,44,44,0,0,1,11.49,19.56.39.39,0,0,1-.28.48Z" style="fill:#407BFF"/><path d="M95.05,380.76H95l-.09,0,0,0a10.73,10.73,0,0,0-4.31-.65.39.39,0,1,1,0-.78,11.6,11.6,0,0,1,4.63.69l0,0a.39.39,0,0,1-.11.77Zm.11-.77.09,0Zm0,0Z" style="fill:#407BFF"/><path d="M96.63,382.68h0a.39.39,0,0,1-.38-.41A14.56,14.56,0,0,0,94,374.15a.39.39,0,1,1,.64-.45A15,15,0,0,1,97,382.31.39.39,0,0,1,96.63,382.68Z" style="fill:#407BFF"/><path d="M98.28,385.26a.4.4,0,0,1-.27-.11,4.34,4.34,0,0,0-4.08-.82.39.39,0,0,1-.49-.26.4.4,0,0,1,.26-.49,5.11,5.11,0,0,1,4.85,1,.39.39,0,0,1-.27.68Z" style="fill:#407BFF"/><path d="M100.42,389.53a.33.33,0,0,1-.17,0,.39.39,0,0,1-.19-.52,11.08,11.08,0,0,0,.66-5.5.4.4,0,0,1,.35-.44.39.39,0,0,1,.44.34,11.5,11.5,0,0,1-.74,5.93A.37.37,0,0,1,100.42,389.53Z" style="fill:#407BFF"/><path d="M101.71,392.55c-2.14.14-5.89-1.69-7.42-3.57s2.62-.86,2.13-2.39-5.51-.16-6.54-2.33,2.65-1.82,2.45-2.95-4-.73-5.29-3,2.07-1.12,1.51-2.08-4.92-4.87-3.21-5.8,5.81,3.17,7.14,3.59,1.51-2.55,3.27-1.21.76,7.56,2.81,8.29c1.52.54.76-2.26,2.51-1.62C104.14,380.57,102.58,392.5,101.71,392.55Z" style="fill:#407BFF"/><g style="opacity:0.2"><path d="M101.71,392.55c-2.14.14-5.89-1.69-7.42-3.57s2.62-.86,2.13-2.39-5.51-.16-6.54-2.33,2.65-1.82,2.45-2.95-4-.73-5.29-3,2.07-1.12,1.51-2.08-4.92-4.87-3.21-5.8,5.81,3.17,7.14,3.59,1.51-2.55,3.27-1.21.76,7.56,2.81,8.29c1.52.54.76-2.26,2.51-1.62C104.14,380.57,102.58,392.5,101.71,392.55Z" style="fill:#fff"/></g><path d="M118.84,396.72c0,10.39,4.59,18.82-18.82,18.82-20.8,0-18.81-8.43-18.81-18.82s8.42-13.34,18.81-13.34S118.84,386.32,118.84,396.72Z" style="fill:#263238"/><rect x="79.22" y="383.18" width="41.66" height="10.31" style="fill:#263238"/><rect x="79.22" y="383.18" width="41.66" height="10.31" style="fill:#fff;opacity:0.2;isolation:isolate"/></g><g id="freepik--Books--inject-95"><path d="M272.28,412.43a12.36,12.36,0,0,1-1,5.44h-43v-1h.87V408h-.87v-1h43A12.7,12.7,0,0,1,272.28,412.43Z" style="fill:#263238"/><path d="M272.28,412.43a12.36,12.36,0,0,1-1,5.44h-43v-1h.87V408h-.87v-1h43A12.7,12.7,0,0,1,272.28,412.43Z" style="fill:#fff;opacity:0.2;isolation:isolate"/><path d="M249.28,412.43a12.36,12.36,0,0,1-1,5.44h-20v-1h.87V408h-.87v-1h20A12.7,12.7,0,0,1,249.28,412.43Z" style="opacity:0.2;isolation:isolate"/><path d="M247.16,412.43a10.06,10.06,0,0,1-.81,4.42H229.16V408h17.19A10.35,10.35,0,0,1,247.16,412.43Z" style="fill:#fff;opacity:0.8;isolation:isolate"/><path d="M265.28,412.43a12.36,12.36,0,0,1-1,5.44h-8a12.36,12.36,0,0,0,1-5.44,12.7,12.7,0,0,0-1-5.45h8A12.7,12.7,0,0,1,265.28,412.43Z" style="fill:#fff;opacity:0.6000000000000001;isolation:isolate"/><path d="M276.11,401.54a12.36,12.36,0,0,1-1,5.44h-43v-1H233v-8.85h-.87v-1h43A12.7,12.7,0,0,1,276.11,401.54Z" style="fill:#407BFF"/><path d="M253.11,401.54a12.36,12.36,0,0,1-1,5.44h-20v-1H233v-8.85h-.87v-1h20A12.7,12.7,0,0,1,253.11,401.54Z" style="opacity:0.2;isolation:isolate"/><path d="M251,401.54a10.06,10.06,0,0,1-.81,4.42H233v-8.85h17.19A10.35,10.35,0,0,1,251,401.54Z" style="fill:#fff;opacity:0.8;isolation:isolate"/><path d="M269.11,401.54a12.36,12.36,0,0,1-1,5.44h-8a12.36,12.36,0,0,0,1-5.44,12.7,12.7,0,0,0-1-5.45h8A12.7,12.7,0,0,1,269.11,401.54Z" style="opacity:0.2;isolation:isolate"/></g><g id="freepik--speech-bubble--inject-95"><circle cx="393.91" cy="259.22" r="14.2" transform="translate(51.12 583.03) rotate(-76.72)" style="fill:#407BFF"/><polygon points="385.83 266.22 381.62 277.29 390.98 269.84 385.83 266.22" style="fill:#407BFF"/><path d="M399.25,259.72H388.56a.51.51,0,0,1-.5-.5.5.5,0,0,1,.5-.5h10.69a.5.5,0,0,1,.5.5A.51.51,0,0,1,399.25,259.72Z" style="fill:#fff"/><path d="M393.91,265.06a.5.5,0,0,1-.5-.5V253.88a.5.5,0,0,1,.5-.5.5.5,0,0,1,.5.5v10.68A.51.51,0,0,1,393.91,265.06Z" style="fill:#fff"/></g><g id="freepik--Character--inject-95"><path d="M374.44,282.62s-13.9-11.14-22,6.38c-4.58,9.89-.91,30.76,8.12,37.83S388.37,318,388.37,318s4.15-20.16-2.19-28.64C378.06,278.52,374.44,282.62,374.44,282.62Z" style="fill:#263238"/><path d="M355,325.62a.24.24,0,0,1-.22-.14c-.1-.19-9.36-19.49-4.78-34,1.34-4.21,3.66-7.12,6.92-8.63,5.89-2.74,12.87.09,12.94.12a.24.24,0,0,1,.13.33.25.25,0,0,1-.32.13c-.07,0-6.86-2.78-12.55-.13-3.12,1.46-5.35,4.26-6.64,8.33-4.52,14.28,4.65,33.4,4.74,33.59a.25.25,0,0,1-.11.34A.22.22,0,0,1,355,325.62Z" style="fill:#263238"/><path d="M355.39,333.11s-2.46,22.15-3.26,24.79-12.08,16.74-12.08,16.74l3.2,1.66s12-12.33,13.91-16,4.76-22.76,4.76-22.76Z" style="fill:#ebb376"/><path d="M366.42,342.86l-.62-.1L357,341.32l-4.69-.76s.41-13.45,5.34-17.3l4.74,4.39Z" style="fill:#407BFF"/><path d="M365.8,342.76,357,341.32c-.69-6.14,2.36-12.67,2.36-12.67C363.29,331.3,365.48,337.69,365.8,342.76Z" style="opacity:0.2;isolation:isolate"/><path d="M374,362.88l-7.47,11.83c-14.83-3.45-62.36-10.7-68.19,5.6-7.26,20.27,45.17,36.42,74.18,37.41s52.29-15.52,33.95-57.82Z" style="fill:#263238"/><path d="M374,362.88l-7.47,11.83c-14.83-3.45-62.36-10.7-68.19,5.6-7.26,20.27,45.17,36.42,74.18,37.41s52.29-15.52,33.95-57.82Z" style="opacity:0.2;isolation:isolate"/><path d="M305,407.78a2.63,2.63,0,0,1-.91-1.31,1,1,0,0,1,.35-.93.59.59,0,0,1,.58-.17c1,.29,1.93,3.08,2,3.4a.14.14,0,0,1-.05.18.18.18,0,0,1-.21,0A10.57,10.57,0,0,1,305,407.78Zm.16-1.92a.71.71,0,0,0-.22-.13.2.2,0,0,0-.23.07.62.62,0,0,0-.25.63,4.19,4.19,0,0,0,2.07,2A8.17,8.17,0,0,0,305.11,405.86Z" style="fill:#263238"/><path d="M306.69,409l0-.08c-.34-.86-.43-3.12.27-3.62a.62.62,0,0,1,.78.08,1.06,1.06,0,0,1,.46.7c.22,1.14-1.12,2.83-1.21,2.91a.17.17,0,0,1-.18.05A.18.18,0,0,1,306.69,409Zm.85-3.28-.07-.05c-.2-.14-.29-.08-.33-.05-.41.28-.48,1.87-.26,2.83a3.92,3.92,0,0,0,.89-2.32.73.73,0,0,0-.23-.41Z" style="fill:#263238"/><path d="M358.72,415.61a2.63,2.63,0,0,1,.16,1.59,1,1,0,0,1-.76.65.63.63,0,0,1-.59-.13c-.7-.73-.19-3.64-.12-4a.16.16,0,0,1,.13-.14.19.19,0,0,1,.19.1A11,11,0,0,1,358.72,415.61Zm-1.07,1.61a.71.71,0,0,0,.13.22.22.22,0,0,0,.23.05.64.64,0,0,0,.53-.44,4.14,4.14,0,0,0-.85-2.74A8.13,8.13,0,0,0,357.65,417.22Z" style="fill:#263238"/><polygon points="338.74 399.04 350.68 403.29 356.41 405.33 354.94 411.6 349.39 410.42 335.83 407.53 338.74 399.04" style="fill:#ebb376"/><path d="M353.38,411.9l1-7.4a.74.74,0,0,1,.86-.63l3.65.61s5,.46,5.95,1.74c2.89,3.72,1.09,20.15-.84,20.73-.7.21-1.45-.76-1.75-1.42-1-2.12-2.69-7.66-3.52-9.41-1-2.05-3.64-3.06-4.84-3.42A.72.72,0,0,1,353.38,411.9Z" style="fill:#407BFF"/><path d="M357.77,413.74l0,.08c-.12.92-1.14,2.94-2,3a.62.62,0,0,1-.64-.43,1.11,1.11,0,0,1-.07-.84c.36-1.11,2.35-1.94,2.47-2a.15.15,0,0,1,.18,0A.18.18,0,0,1,357.77,413.74Zm-2.34,2.45,0,.08c.11.23.21.21.26.21.5-.05,1.33-1.4,1.61-2.35-.57.27-1.69.9-1.91,1.59a.75.75,0,0,0,0,.47Z" style="fill:#263238"/><polygon points="338.74 399.04 350.68 403.29 349.39 410.42 335.83 407.53 338.74 399.04" style="opacity:0.2;isolation:isolate"/><polygon points="347.27 411.49 343.84 411.74 346.14 399.93 350.03 402.08 347.27 411.49" style="fill:#407BFF"/><polygon points="347.27 411.49 343.84 411.74 346.14 399.93 350.03 402.08 347.27 411.49" style="fill:#fff;opacity:0.6000000000000001;isolation:isolate"/><path d="M397.07,365.6l-17.88,19.82s-19.77-.44-43.77,11.29c0,0-25.75-10.63-28.12-19.47-3.1-11.58,59.22-2.53,59.22-2.53Z" style="opacity:0.2;isolation:isolate"/><path d="M313.21,379.6v2.94c0,.75.89,1.06,1.63,1.06h58.71c.75,0,1.66-.31,1.66-1.06V379.6Z" style="fill:#263238"/><path d="M313.21,379.6v2.94c0,.75.89,1.06,1.63,1.06h58.71c.75,0,1.66-.31,1.66-1.06V379.6Z" style="fill:#fff;opacity:0.4;isolation:isolate"/><path d="M313.21,379.6v2.94c0,.75.89,1.06,1.63,1.06h38.72c.75,0,1.65-.31,1.65-1.06V379.6Z" style="opacity:0.2;isolation:isolate"/><path d="M303.39,349.1l7,31.7a2.39,2.39,0,0,0,2.27,1.8h38.18a1.53,1.53,0,0,0,1.43-2l-7-31.46A2.16,2.16,0,0,0,343,347.6H304.83C303.8,347.6,303.16,348.06,303.39,349.1Z" style="fill:#263238"/><path d="M303.39,349.1l7,31.7a2.39,2.39,0,0,0,2.27,1.8h36.88a1.55,1.55,0,0,0,1.45-2l-7-31.46a2.17,2.17,0,0,0-2.27-1.55H304.83C303.8,347.6,303.16,348.06,303.39,349.1Z" style="fill:#fff;opacity:0.4;isolation:isolate"/><path d="M322.21,365.21h0c0,2.71,2.91,4.92,5,4.92s3.4-2.21,2.79-4.92-2.73-4.83-4.82-4.91c.61,2.71-.69,4.91-2.82,4.91A1,1,0,0,1,322.21,365.21Z" style="opacity:0.2;isolation:isolate"/><polygon points="330.45 412.62 317.95 414.67 311.95 415.66 310.19 409.46 315.63 407.81 328.89 403.77 330.45 412.62" style="fill:#ebb376"/><path d="M311.42,408.45l2.7,7a.74.74,0,0,1-.44,1l-3.49,1.24s-4.57,2-6.05,1.36c-4.33-1.86-10.71-17.11-9.3-18.55.51-.52,1.63,0,2.22.4,1.87,1.38,6.05,5.39,7.63,6.52,1.85,1.33,4.67.92,5.89.65A.73.73,0,0,1,311.42,408.45Z" style="fill:#407BFF"/><polygon points="330.45 412.62 317.95 414.67 315.63 407.81 328.89 403.77 330.45 412.62" style="opacity:0.2;isolation:isolate"/><path d="M317.78,406.51s51-28.65,68.56-27.84,20.13,16.33,12.87,26-20.66,12.07-20.66,12.07,9.13-12.89,7.81-16.52-6.48,1.43-6.48,1.43S347.81,412,319.76,414.42Z" style="fill:#263238"/><polygon points="316.96 405.73 319.84 403.79 323.55 415.17 319.1 415.17 316.96 405.73" style="fill:#407BFF"/><polygon points="316.96 405.73 319.84 403.79 323.55 415.17 319.1 415.17 316.96 405.73" style="fill:#fff;opacity:0.6000000000000001;isolation:isolate"/><path d="M406.46,359.9l-32.47,3s-5.09-10.54-9-14.65-7.36-25-7.36-25a69.34,69.34,0,0,1,8.14-3.32,80.68,80.68,0,0,1,24.84-4.18h.18c2.42,0,3.82.12,3.82.12a6.9,6.9,0,0,1,2.31,2.63c3.48,6,6.25,20,7.89,30.05C405.88,355.05,406.46,359.9,406.46,359.9Z" style="fill:#407BFF"/><path d="M404.82,348.56c-7.16-3.28-16.93-8.83-16.42-14.46.55-6.18,5.56-12.4,8.53-15.59C400.41,324.51,403.18,338.51,404.82,348.56Z" style="opacity:0.2;isolation:isolate"/><path d="M386.05,344.46c1.64,4.71-.55,9.23-4.88,10.08s-9.17-2.27-10.8-7,.54-9.23,4.88-10.09S384.42,339.75,386.05,344.46Z" style="fill:#fff;opacity:0.4;isolation:isolate"/><polygon points="372.1 353.21 374.14 336.34 387.59 350.91 372.1 353.21" style="fill:#407BFF"/><path d="M390.8,315.76a24.51,24.51,0,0,1-5.59,10.93,13.94,13.94,0,0,1-2,1.77,12.85,12.85,0,0,1-6.89,2.42c-4.47.27-6.86-1.68-8.26-4.12a17.47,17.47,0,0,1-1.63-4.38c-.23-.91-.41-1.76-.6-2.44l1.57-.51c.79-.25,1.56-.48,2.33-.7A82.61,82.61,0,0,1,384.93,316l2.1-.14c1.36-.07,2.56-.1,3.59-.11Z" style="fill:#ebb376"/><path d="M371.34,317.88c-.06,2-1.21,2.51-1.21,2.51a4.11,4.11,0,0,0,4.45,4.73c6.37-.65,8.38-8.32,8.38-8.32-4.63-1.84-5.68-7-5.87-10a17,17,0,0,1,0-2.39l-8.66,5.46a30.32,30.32,0,0,1,1.93,3.79A10.8,10.8,0,0,1,371.34,317.88Z" style="fill:#ebb376"/><path d="M369,309.2a31.37,31.37,0,0,1,1.54,4,10.8,10.8,0,0,1,.54,4.3c4.87.38,6.8-10.38,6.8-10.38l.05-.06a16.26,16.26,0,0,1,.24-2.37Z" style="opacity:0.2;isolation:isolate"/><path d="M361.9,287.56c-8.38,2.55-9.71,7.86-7.69,16.68,2.52,11,7.25,18,17,12.46C384.5,309.23,375.81,283.32,361.9,287.56Z" style="fill:#ebb376"/><path d="M359.48,302.12a18.63,18.63,0,0,1-1.37,4.22,2.39,2.39,0,0,0,2.49.27Z" style="fill:#d58745"/><path d="M364.4,299.87c.2.69.73,1.15,1.19,1s.68-.79.48-1.49-.72-1.15-1.18-1S364.21,299.18,364.4,299.87Z" style="fill:#263238"/><path d="M365.09,298.36l-1.67-.17S364.52,299.25,365.09,298.36Z" style="fill:#263238"/><path d="M355.75,302.14c.19.69.72,1.15,1.18,1s.68-.8.49-1.49-.73-1.15-1.19-1S355.55,301.44,355.75,302.14Z" style="fill:#263238"/><path d="M356.43,300.63l-1.67-.17S355.87,301.51,356.43,300.63Z" style="fill:#263238"/><path d="M366.74,294.58a.36.36,0,0,1-.2-.06,4.24,4.24,0,0,0-3.67-.13.36.36,0,1,1-.3-.66,4.9,4.9,0,0,1,4.37.19.36.36,0,0,1,.1.5A.34.34,0,0,1,366.74,294.58Z" style="fill:#263238"/><path d="M353.4,297.63a.32.32,0,0,1-.23-.08.35.35,0,0,1-.05-.51,4.43,4.43,0,0,1,3.43-1.84.36.36,0,0,1,.34.38.38.38,0,0,1-.38.35h0a3.65,3.65,0,0,0-2.83,1.57A.37.37,0,0,1,353.4,297.63Z" style="fill:#263238"/><path d="M375.36,298.88s-6-5.68-7-11.18c0,0-18.67-1.72-14.35,15.38,0,0-6.19-14.46,8.11-19.19s20.66,16.36,15.14,24.91C377.22,308.8,379.09,302.45,375.36,298.88Z" style="fill:#263238"/><path d="M374.53,301.07a3.83,3.83,0,0,1,2.93-4.56c2.68-.51,5.55,4.44-.52,7.69C376.07,304.67,375.27,303.92,374.53,301.07Z" style="fill:#ebb376"/><path d="M362.53,310.39a.37.37,0,0,1,0-.73,3.85,3.85,0,0,0,3.93-3.3.36.36,0,0,1,.4-.31.37.37,0,0,1,.32.4,4.65,4.65,0,0,1-4.63,3.94Z" style="fill:#263238"/><path d="M387.55,307.82a.24.24,0,0,1-.24-.2c0-.05-.93-4.63-9.75-7.2-9.17-2.67-9.8-13.67-9.8-13.78a.25.25,0,0,1,.24-.26.25.25,0,0,1,.26.24c0,.11.62,10.76,9.44,13.32,9.15,2.67,10.07,7.39,10.1,7.59a.26.26,0,0,1-.2.29Z" style="fill:#263238"/><path d="M390.8,326.82s-1.06,21.37-2.86,26.16-20.69,22.49-20.69,22.49-5.27-1.18-6.14-.83-5.9,5-5.9,5h14.53l1.27-2.25s19.54-14.47,21.69-17.93c1.59-2.55,6.7-28.51,6.7-28.51Z" style="fill:#ebb376"/><path d="M394.62,315.88c13.15,3.23,7,23,7,23l-13.68-3.35S387.94,314.24,394.62,315.88Z" style="fill:#407BFF"/><path d="M385.21,326.69a13.94,13.94,0,0,1-2,1.77A21.78,21.78,0,0,1,384.93,316l2.1-.14A25.23,25.23,0,0,0,385.21,326.69Z" style="fill:#263238"/><path d="M369.68,318.73a23.8,23.8,0,0,0-1.67,8,17.47,17.47,0,0,1-1.63-4.38,21.72,21.72,0,0,1,1-2.95C368.14,319.18,368.91,319,369.68,318.73Z" style="fill:#263238"/><path d="M385.21,326.69a13.94,13.94,0,0,1-2,1.77A21.78,21.78,0,0,1,384.93,316l2.1-.14A25.23,25.23,0,0,0,385.21,326.69Z" style="fill:#fff;opacity:0.4;isolation:isolate"/><path d="M369.68,318.73a23.8,23.8,0,0,0-1.67,8,17.47,17.47,0,0,1-1.63-4.38,21.72,21.72,0,0,1,1-2.95C368.14,319.18,368.91,319,369.68,318.73Z" style="fill:#fff;opacity:0.4;isolation:isolate"/></g></svg>